<svg xmlns="http://www.w3.org/2000/svg" viewBox="0 0 48 48" fill="none" aria-hidden="true">
  <defs>
    <linearGradient id="edchain-grad" x1="0%" y1="0%" x2="100%" y2="100%">
      <stop offset="0%" style="stop-color:#007AFF"/>
      <stop offset="100%" style="stop-color:#5856D6"/>
    </linearGradient>
  </defs>
  <!-- Chain link left -->
  <path d="M12 18a6 6 0 1 1 0 12 6 6 0 0 1 0-12zm0 4a2 2 0 1 0 0 4 2 2 0 0 0 0-4z" fill="url(#edchain-grad)"/>
  <!-- Chain link right -->
  <path d="M36 18a6 6 0 1 1 0 12 6 6 0 0 1 0-12zm0 4a2 2 0 1 0 0 4 2 2 0 0 0 0-4z" fill="url(#edchain-grad)"/>
  <!-- Cap base -->
  <path d="M14 22h20v2a2 2 0 0 1-2 2H16a2 2 0 0 1-2-2v-2z" fill="url(#edchain-grad)"/>
  <!-- Cap top (mortarboard) -->
  <path d="M12 22l12-8 12 8-12-4-12 4z" fill="url(#edchain-grad)"/>
  <!-- Tassel -->
  <circle cx="24" cy="14" r="1.5" fill="#FF9500"/>
  <path d="M24 15.5v4" stroke="#FF9500" stroke-width="1" stroke-linecap="round"/>
</svg>
