<svg xmlns="http://www.w3.org/2000/svg" viewBox="0 0 32 32" fill="none" aria-hidden="true">
  <defs>
    <linearGradient id="icon-grad" x1="0%" y1="0%" x2="100%" y2="100%">
      <stop offset="0%" style="stop-color:#007AFF"/>
      <stop offset="100%" style="stop-color:#5856D6"/>
    </linearGradient>
  </defs>
  <path d="M8 12a4 4 0 1 1 0 8 4 4 0 0 1 0-8zm16 0a4 4 0 1 1 0 8 4 4 0 0 1 0-8z" fill="url(#icon-grad)"/>
  <path d="M10 14h12v1.5a1.5 1.5 0 0 1-1.5 1.5h-9a1.5 1.5 0 0 1-1.5-1.5V14z" fill="url(#icon-grad)"/>
  <path d="M8 14l8-5.5 8 5.5-8-2.5-8 2.5z" fill="url(#icon-grad)"/>
  <circle cx="16" cy="9" r="1" fill="#FF9500"/>
</svg>
